<svg width="1440" height="148" viewBox="0 0 1440 148" fill="none" xmlns="http://www.w3.org/2000/svg">
    <path
        d="M-42.983 83.174C-49.5812 61.7688 -37.334 39.1963 -15.6194 33.7014C28.337 22.5782 100.771 6.01933 157.743 1.65614C292.307 -8.6495 363.737 32.3269 499.438 36.9185C651.16 42.0521 735.752 15.3722 887.485 20.4211C1029.93 25.1609 1103.11 56.9518 1245.82 58.2637C1302.78 58.7874 1377.8 53.972 1430.79 49.8331C1460.62 47.5026 1482.93 77.2852 1471.94 105.117L1464.99 122.694C1458.96 137.965 1444.21 148 1427.79 148H6.52711C-11.0255 148 -26.5274 136.557 -31.698 119.783L-42.983 83.174Z"
        fill="#0A2471" />
</svg>